<?xml version="1.0" standalone="no"?>
<!DOCTYPE svg PUBLIC "-//W3C//DTD SVG 20010904//EN"
 "http://www.w3.org/TR/2001/REC-SVG-20010904/DTD/svg10.dtd">
<svg version="1.0" xmlns="http://www.w3.org/2000/svg"
 width="400.000000pt" height="400.000000pt" viewBox="0 0 400.000000 400.000000"
 preserveAspectRatio="xMidYMid meet">
<metadata>
Created by potrace 1.11, written by Peter Selinger 2001-2013
</metadata>
<g transform="translate(0.000000,400.000000) scale(0.100000,-0.100000)"
fill="#000000" stroke="none">
<path d="M241 3808 c-72 -69 -92 -135 -77 -252 3 -21 33 -94 67 -163 70 -141
82 -195 53 -239 -11 -15 -17 -30 -16 -32 2 -2 -14 -28 -37 -58 -22 -30 -35
-54 -28 -54 28 0 134 60 162 91 44 49 55 74 59 127 6 68 -9 126 -55 212 -109
206 -122 253 -92 353 8 27 13 51 11 53 -3 2 -24 -15 -47 -38z"/>
<path d="M437 3543 c7 -69 18 -109 52 -186 27 -63 36 -136 22 -180 -11 -33
-31 -55 -207 -224 -24 -24 -44 -47 -44 -53 0 -5 -4 -10 -8 -10 -5 0 -19 -21
-33 -47 -23 -47 -32 -133 -18 -188 7 -30 61 -103 118 -161 27 -28 59 -67 71
-85 l21 -34 -2 40 c-2 22 -9 49 -16 60 -6 11 -12 23 -13 27 0 4 -16 42 -35 83
-39 85 -44 136 -17 178 11 15 68 76 128 135 125 123 132 131 159 192 43 96 17
213 -74 327 -21 28 -54 76 -71 107 -18 31 -33 56 -35 56 -1 0 0 -17 2 -37z"/>
<path d="M2033 2980 c-48 -11 -104 -58 -121 -102 l-16 -40 -65 6 c-36 3 -88 8
-116 11 -161 15 -636 21 -760 10 -149 -14 -265 -31 -335 -50 -3 -1 -18 -5 -35
-10 -89 -24 -196 -98 -174 -120 3 -2 32 -7 64 -9 33 -3 78 -8 100 -11 85 -12
111 -15 150 -20 99 -11 382 -46 405 -50 14 -2 52 -7 84 -10 33 -3 71 -7 85 -9
14 -3 49 -7 76 -11 69 -8 124 -15 165 -20 38 -5 39 -5 285 -35 94 -11 190 -23
214 -25 24 -3 62 -8 85 -11 22 -2 55 -6 71 -8 17 -3 59 -8 95 -11 36 -4 74 -9
84 -11 11 -2 42 -6 70 -9 28 -3 67 -7 86 -10 34 -4 162 -20 245 -30 22 -2 54
-7 70 -10 17 -2 55 -7 85 -10 30 -3 87 -10 125 -15 39 -6 90 -12 115 -14 51
-5 133 -15 169 -21 14 -3 52 -7 86 -10 33 -3 86 -10 118 -14 32 -4 60 -4 62 0
3 4 -2 20 -11 36 -80 138 -516 304 -1074 409 -14 3 -56 11 -95 19 -38 7 -92
16 -119 20 -54 7 -69 12 -62 24 3 4 1 24 -5 45 -24 87 -119 145 -206 126z"/>
<path d="M124 2190 l-1 -41 118 3 c65 2 120 0 123 -3 3 -3 8 -21 10 -40 33
-254 189 -478 456 -654 212 -140 428 -223 720 -280 113 -21 319 -39 460 -39
76 0 288 13 310 19 8 2 32 6 54 10 536 79 995 354 1169 700 37 75 74 208 77
280 0 6 48 10 125 10 l125 -1 0 38 0 38 -1873 0 -1872 0 -1 -40z"/>
<path d="M665 1287 c-22 -61 -73 -273 -67 -279 4 -3 41 -15 82 -26 120 -31
745 -204 747 -206 2 -1 -21 -8 -50 -15 -28 -7 -72 -19 -97 -26 -25 -8 -124
-34 -220 -60 -96 -26 -186 -51 -200 -56 -14 -5 -36 -12 -50 -14 -14 -3 -56
-14 -95 -25 -38 -12 -81 -23 -95 -26 -13 -3 -26 -7 -28 -8 -2 -2 14 -67 35
-145 37 -137 39 -141 63 -137 14 2 167 43 340 91 173 48 371 102 440 120 156
42 199 54 383 105 97 26 157 38 175 34 29 -7 106 -28 567 -155 529 -146 736
-201 742 -196 2 3 22 68 42 144 l38 138 -101 28 c-55 15 -144 39 -196 53 -52
15 -140 39 -195 54 -55 15 -155 43 -223 61 -81 22 -117 36 -105 40 20 8 54 17
293 83 91 25 246 67 345 94 99 27 179 53 179 58 -1 5 -19 70 -39 146 l-38 136
-46 -13 c-25 -8 -219 -61 -431 -119 -212 -58 -484 -132 -605 -166 -121 -33
-231 -61 -245 -62 -23 0 -208 47 -421 108 -47 13 -94 26 -105 28 -10 3 -86 23
-169 46 -82 23 -173 48 -201 55 -67 18 -369 102 -412 114 -24 7 -34 7 -37 -2z"/>
</g>
</svg>
